<svg xmlns="http://www.w3.org/2000/svg" width="512" height="512" viewBox="0 0 512 512">
<defs>
<linearGradient id="bg" x1="0" y1="0" x2="0" y2="1"><stop offset="0" stop-color="#173a55"/><stop offset="0.55" stop-color="#0d1f30"/><stop offset="1" stop-color="#070d15"/></linearGradient>
<radialGradient id="glow" cx="0.5" cy="0.46" r="0.55"><stop offset="0" stop-color="#2ec6e0" stop-opacity="0.22"/><stop offset="1" stop-color="#2ec6e0" stop-opacity="0"/></radialGradient>
<radialGradient id="ncy" cx="0.38" cy="0.34" r="0.75"><stop offset="0" stop-color="#bff2fb"/><stop offset="0.45" stop-color="#2ec6e0"/><stop offset="1" stop-color="#1689a3"/></radialGradient>
<radialGradient id="nor" cx="0.38" cy="0.34" r="0.75"><stop offset="0" stop-color="#ffe2ad"/><stop offset="0.45" stop-color="#f4a72c"/><stop offset="1" stop-color="#c2761a"/></radialGradient>
</defs>
<rect x="0" y="0" width="512" height="512" rx="104" fill="url(#bg)"/>
<rect x="0" y="0" width="512" height="512" rx="104" fill="url(#glow)"/>
<rect x="14" y="14" width="484" height="484" rx="92" fill="none" stroke="#2ec6e0" stroke-opacity="0.22" stroke-width="3"/>
<line x1="150" y1="136" x2="256" y2="136" stroke="#2ec6e0" stroke-opacity="0.18" stroke-width="2.0" stroke-linecap="round"/>
<line x1="150" y1="136" x2="256" y2="196" stroke="#2ec6e0" stroke-opacity="0.18" stroke-width="2.0" stroke-linecap="round"/>
<line x1="150" y1="136" x2="256" y2="256" stroke="#2ec6e0" stroke-opacity="0.18" stroke-width="2.0" stroke-linecap="round"/>
<line x1="150" y1="136" x2="256" y2="316" stroke="#2ec6e0" stroke-opacity="0.18" stroke-width="2.0" stroke-linecap="round"/>
<line x1="150" y1="136" x2="256" y2="382" stroke="#2ec6e0" stroke-opacity="0.18" stroke-width="2.0" stroke-linecap="round"/>
<line x1="150" y1="218" x2="256" y2="136" stroke="#2ec6e0" stroke-opacity="0.18" stroke-width="2.0" stroke-linecap="round"/>
<line x1="150" y1="218" x2="256" y2="196" stroke="#2ec6e0" stroke-opacity="0.18" stroke-width="2.0" stroke-linecap="round"/>
<line x1="150" y1="218" x2="256" y2="256" stroke="#2ec6e0" stroke-opacity="0.7" stroke-width="3.4" stroke-linecap="round"/>
<line x1="150" y1="218" x2="256" y2="316" stroke="#2ec6e0" stroke-opacity="0.18" stroke-width="2.0" stroke-linecap="round"/>
<line x1="150" y1="218" x2="256" y2="382" stroke="#2ec6e0" stroke-opacity="0.18" stroke-width="2.0" stroke-linecap="round"/>
<line x1="150" y1="300" x2="256" y2="136" stroke="#2ec6e0" stroke-opacity="0.18" stroke-width="2.0" stroke-linecap="round"/>
<line x1="150" y1="300" x2="256" y2="196" stroke="#2ec6e0" stroke-opacity="0.18" stroke-width="2.0" stroke-linecap="round"/>
<line x1="150" y1="300" x2="256" y2="256" stroke="#2ec6e0" stroke-opacity="0.18" stroke-width="2.0" stroke-linecap="round"/>
<line x1="150" y1="300" x2="256" y2="316" stroke="#2ec6e0" stroke-opacity="0.18" stroke-width="2.0" stroke-linecap="round"/>
<line x1="150" y1="300" x2="256" y2="382" stroke="#2ec6e0" stroke-opacity="0.18" stroke-width="2.0" stroke-linecap="round"/>
<line x1="150" y1="382" x2="256" y2="136" stroke="#2ec6e0" stroke-opacity="0.18" stroke-width="2.0" stroke-linecap="round"/>
<line x1="150" y1="382" x2="256" y2="196" stroke="#2ec6e0" stroke-opacity="0.18" stroke-width="2.0" stroke-linecap="round"/>
<line x1="150" y1="382" x2="256" y2="256" stroke="#2ec6e0" stroke-opacity="0.18" stroke-width="2.0" stroke-linecap="round"/>
<line x1="150" y1="382" x2="256" y2="316" stroke="#2ec6e0" stroke-opacity="0.18" stroke-width="2.0" stroke-linecap="round"/>
<line x1="150" y1="382" x2="256" y2="382" stroke="#2ec6e0" stroke-opacity="0.18" stroke-width="2.0" stroke-linecap="round"/>
<line x1="256" y1="136" x2="362" y2="206" stroke="#2ec6e0" stroke-opacity="0.18" stroke-width="2.0" stroke-linecap="round"/>
<line x1="256" y1="136" x2="362" y2="306" stroke="#2ec6e0" stroke-opacity="0.18" stroke-width="2.0" stroke-linecap="round"/>
<line x1="256" y1="196" x2="362" y2="206" stroke="#2ec6e0" stroke-opacity="0.18" stroke-width="2.0" stroke-linecap="round"/>
<line x1="256" y1="196" x2="362" y2="306" stroke="#2ec6e0" stroke-opacity="0.18" stroke-width="2.0" stroke-linecap="round"/>
<line x1="256" y1="256" x2="362" y2="206" stroke="#2ec6e0" stroke-opacity="0.7" stroke-width="3.4" stroke-linecap="round"/>
<line x1="256" y1="256" x2="362" y2="306" stroke="#2ec6e0" stroke-opacity="0.18" stroke-width="2.0" stroke-linecap="round"/>
<line x1="256" y1="316" x2="362" y2="206" stroke="#2ec6e0" stroke-opacity="0.18" stroke-width="2.0" stroke-linecap="round"/>
<line x1="256" y1="316" x2="362" y2="306" stroke="#2ec6e0" stroke-opacity="0.18" stroke-width="2.0" stroke-linecap="round"/>
<line x1="256" y1="382" x2="362" y2="206" stroke="#2ec6e0" stroke-opacity="0.18" stroke-width="2.0" stroke-linecap="round"/>
<line x1="256" y1="382" x2="362" y2="306" stroke="#2ec6e0" stroke-opacity="0.18" stroke-width="2.0" stroke-linecap="round"/>
<circle cx="150" cy="136" r="30.0" fill="#2ec6e0" fill-opacity="0.14"/><circle cx="150" cy="136" r="15" fill="url(#ncy)" stroke="#06121b" stroke-opacity="0.5" stroke-width="2"/>
<circle cx="150" cy="218" r="30.0" fill="#2ec6e0" fill-opacity="0.14"/><circle cx="150" cy="218" r="15" fill="url(#ncy)" stroke="#06121b" stroke-opacity="0.5" stroke-width="2"/>
<circle cx="150" cy="300" r="30.0" fill="#2ec6e0" fill-opacity="0.14"/><circle cx="150" cy="300" r="15" fill="url(#ncy)" stroke="#06121b" stroke-opacity="0.5" stroke-width="2"/>
<circle cx="150" cy="382" r="30.0" fill="#2ec6e0" fill-opacity="0.14"/><circle cx="150" cy="382" r="15" fill="url(#ncy)" stroke="#06121b" stroke-opacity="0.5" stroke-width="2"/>
<circle cx="256" cy="136" r="30.0" fill="#2ec6e0" fill-opacity="0.14"/><circle cx="256" cy="136" r="15" fill="url(#ncy)" stroke="#06121b" stroke-opacity="0.5" stroke-width="2"/>
<circle cx="256" cy="196" r="30.0" fill="#2ec6e0" fill-opacity="0.14"/><circle cx="256" cy="196" r="15" fill="url(#ncy)" stroke="#06121b" stroke-opacity="0.5" stroke-width="2"/>
<circle cx="256" cy="256" r="30.0" fill="#2ec6e0" fill-opacity="0.14"/><circle cx="256" cy="256" r="15" fill="url(#ncy)" stroke="#06121b" stroke-opacity="0.5" stroke-width="2"/>
<circle cx="256" cy="316" r="30.0" fill="#2ec6e0" fill-opacity="0.14"/><circle cx="256" cy="316" r="15" fill="url(#ncy)" stroke="#06121b" stroke-opacity="0.5" stroke-width="2"/>
<circle cx="256" cy="382" r="30.0" fill="#2ec6e0" fill-opacity="0.14"/><circle cx="256" cy="382" r="15" fill="url(#ncy)" stroke="#06121b" stroke-opacity="0.5" stroke-width="2"/>
<circle cx="362" cy="206" r="46.0" fill="#f4a72c" fill-opacity="0.14"/><circle cx="362" cy="206" r="23" fill="url(#nor)" stroke="#06121b" stroke-opacity="0.5" stroke-width="2"/>
<circle cx="362" cy="306" r="46.0" fill="#f4a72c" fill-opacity="0.14"/><circle cx="362" cy="306" r="23" fill="url(#nor)" stroke="#06121b" stroke-opacity="0.5" stroke-width="2"/>
</svg>